<svg xmlns="http://www.w3.org/2000/svg" width="220" height="220" viewBox="0 0 200 200">
  <defs><linearGradient id="g2" x1="0" y1="0" x2="1" y2="1">
    <stop offset="0%" stop-color="#e3f2fd"/>
    <stop offset="100%" stop-color="#bbdefb"/>
  </linearGradient></defs>
  <path fill="url(#g2)"
        d="M35.3,-44.9C47,-35.7,58.3,-24.6,67.4,-9.8C76.4,4.9,83.1,23.4,77.8,35.8C72.5,48.3,55.3,54.7,40.1,63.7C24.9,72.7,12.4,84.2,-1.6,86.5C-15.6,88.8,-31.2,81.8,-43.1,71.5C-55,61.2,-63.2,47.6,-69.7,33C-76.1,18.4,-80.9,2.9,-78.5,-12.5C-76.1,-26.9,-66.5,-41.1,-53.6,-50.1C-40.7,-59.1,-24.4,-62.9,-9.6,-59.7C5.2,-56.5,10.5,-46,35.3,-44.9Z"
        transform="translate(100 100)" />
</svg>