<svg xmlns="http://www.w3.org/2000/svg" width="280" height="280" viewBox="0 0 200 200">
  <defs><linearGradient id="g" x1="0" y1="0" x2="1" y2="1">
    <stop offset="0%" stop-color="#0d47a1"/>
    <stop offset="100%" stop-color="#1976d2"/>
  </linearGradient></defs>
  <path fill="url(#g)"
        d="M52.4,-61.2C66.9,-51.1,76.4,-33.2,79.5,-14.1C82.6,5,79.3,25.3,69.3,41.6C59.2,57.9,42.4,70.2,24.1,75.8C5.7,81.4,-14.1,80.2,-31.1,72.6C-48.1,65,-62.2,50.9,-71.6,34.1C-81,17.3,-85.6,-2.2,-79.5,-18.5C-73.3,-34.8,-56.5,-47.8,-40.1,-58.4C-23.8,-69,-7.9,-77.2,8.5,-81C24.9,-84.8,49.8,-84.3,52.4,-61.2Z"
        transform="translate(100 100)" />
</svg>